# xmcd
#
# Track frame offsets: 
#        150
#        6142
#        24192
#        51602
#        70247
#        99435
#        127530
#        148700
#        167540
#        192777
#        218210
#        228930
#
# Disc length: 3269 seconds
#
# Revision: 3
# Processed by: cddbd v1.5.2PL0 Copyright (c) Steve Scherf et al.
# Submitted via: ExactAudioCopy v0.99pb4
#
DISCID=970cc30c
DTITLE=PINK - FINAL MIX
DYEAR=1988
DGENRE=JPop
TTITLE0=YOUNG STAR 
TTITLE1=TOKYO JOY (REMIX)
TTITLE2=YOUNG GENIUS (REMIX)
TTITLE3=SOUL FLIGHT (REMIX)
TTITLE4=SHADOW PARADISE (REMIX)
TTITLE5=LUCIA (REMIX)
TTITLE6=TRAVELLER (REMIX)
TTITLE7=SCANNER (REMIX)
TTITLE8=HIKARI-NO-KO (REMIX)
TTITLE9=SOLAR ECLIPSE (REMIX)
TTITLE10=SHISUNO
TTITLE11=MACHINE GUN HEART (REMIX)
EXTD=YEAR: 1988
EXTT0=
EXTT1=
EXTT2=
EXTT3=
EXTT4=
EXTT5=
EXTT6=
EXTT7=
EXTT8=
EXTT9=
EXTT10=
EXTT11=
PLAYORDER=
